<?xml version="1.0" encoding="UTF-8" standalone="no"?>
<svg
   height="128"
   width="128"
   version="1.1"
   id="svg302"
   sodipodi:docname="icon.svg"
   inkscape:version="1.2.2 (b0a8486541, 2022-12-01)"
   xmlns:inkscape="http://www.inkscape.org/namespaces/inkscape"
   xmlns:sodipodi="http://sodipodi.sourceforge.net/DTD/sodipodi-0.dtd"
   xmlns="http://www.w3.org/2000/svg"
   xmlns:svg="http://www.w3.org/2000/svg">
  <defs
     id="defs306" />
  <sodipodi:namedview
     id="namedview304"
     pagecolor="#ffffff"
     bordercolor="#666666"
     borderopacity="1.0"
     inkscape:showpageshadow="2"
     inkscape:pageopacity="0.0"
     inkscape:pagecheckerboard="0"
     inkscape:deskcolor="#d1d1d1"
     showgrid="false"
     inkscape:zoom="2.154466"
     inkscape:cx="-65.445452"
     inkscape:cy="40.381236"
     inkscape:window-width="1920"
     inkscape:window-height="1025"
     inkscape:window-x="0"
     inkscape:window-y="27"
     inkscape:window-maximized="1"
     inkscape:current-layer="svg302" />
  <g
     transform="translate(32 32)"
     id="g282">
    <path
       d="m-16-32c-8.86 0-16 7.13-16 15.99v95.98c0 8.86 7.13 15.99 16 15.99h96c8.86 0 16-7.13 16-15.99v-95.98c0-8.85-7.14-15.99-16-15.99z"
       fill="#363d52"
       id="path278" />
    <path
       d="m-16-32c-8.86 0-16 7.13-16 15.99v95.98c0 8.86 7.13 15.99 16 15.99h96c8.86 0 16-7.13 16-15.99v-95.98c0-8.85-7.14-15.99-16-15.99zm0 4h96c6.64 0 12 5.35 12 11.99v95.98c0 6.64-5.35 11.99-12 11.99h-96c-6.64 0-12-5.35-12-11.99v-95.98c0-6.64 5.36-11.99 12-11.99z"
       fill-opacity=".4"
       id="path280" />
  </g>
  <g
     id="g1717"
     transform="translate(-1.3409385)">
    <path
       id="rect468"
       style="fill:#ffffff;stroke-width:8;stroke-linecap:square;stroke-linejoin:bevel;stroke-opacity:0.202761;paint-order:stroke markers fill;stop-color:#000000"
       d="m 52.502854,22.62792 h 42.638404 c 1.108,0 2,0.892 2,2 v 80.94424 c 0,1.108 -0.892,2 -2,2 H 52.502854 c -1.108,0 -2,-0.892 -2,-2 V 24.62792 c 0,-1.108 0.892,-2 2,-2 z" />
    <path
       id="rect470"
       style="fill:#478cbf;stroke-width:8;stroke-linecap:square;stroke-linejoin:bevel;stroke-opacity:0.202761;paint-order:stroke markers fill;stop-color:#000000"
       d="m 35.540619,22.62792 42.638409,-7.22339 c 1.092435,-0.18507 2,0.892 2,2 v 93.20062 c 0,1.108 -0.899639,2.12988 -2,2 l -42.638409,-5.03299 c -1.100361,-0.12989 -2,-0.892 -2,-2 V 24.62792 c 0,-1.108 0.907565,-1.81493 2,-2 z"
       sodipodi:nodetypes="sssssssss" />
    <path
       id="path1521"
       style="fill:#414042;stroke-width:8;stroke-linecap:square;stroke-linejoin:bevel;stroke-opacity:0.202761;paint-order:stroke markers fill;stop-color:#000000"
       d="m 75.319084,64 a 4,4 0 0 1 -4,4 4,4 0 0 1 -4,-4 4,4 0 0 1 4,-4 4,4 0 0 1 4,4 z" />
  </g>
</svg>
